<?xml version="1.0" standalone="no"?>
<!DOCTYPE svg PUBLIC "-//W3C//DTD SVG 20010904//EN"
 "http://www.w3.org/TR/2001/REC-SVG-20010904/DTD/svg10.dtd">
<svg version="1.0" xmlns="http://www.w3.org/2000/svg"
 width="349.000000pt" height="332.000000pt" viewBox="0 0 349.000000 332.000000"
 preserveAspectRatio="xMidYMid meet">

<g transform="translate(0.000000,332.000000) scale(0.100000,-0.100000)"
fill="#000000" stroke="none">
<path d="M920 3261 c8 -5 40 -16 70 -24 30 -8 89 -27 130 -42 41 -15 95 -33
120 -41 25 -7 146 -47 270 -88 124 -42 239 -76 257 -76 17 0 85 18 150 40 65
22 246 84 403 136 157 53 287 98 289 100 2 2 -380 4 -850 4 -494 0 -848 -4
-839 -9z"/>
<path d="M854 2618 c3 -18 26 -85 51 -148 53 -138 105 -284 187 -525 33 -99
65 -189 71 -200 6 -11 12 -24 13 -30 4 -25 115 -343 222 -640 28 -77 74 -207
102 -290 54 -161 114 -328 139 -385 8 -19 16 -42 17 -50 6 -30 99 -309 104
-310 3 0 21 49 40 108 19 59 57 165 83 237 26 71 104 285 173 475 69 190 147
405 174 477 28 73 50 141 50 151 0 10 4 22 8 28 5 5 20 41 35 79 146 391 222
599 237 645 10 30 45 126 79 213 34 87 61 166 59 175 -3 16 -74 17 -927 20
l-924 2 7 -32z"/>
</g>
</svg>
